<svg width="42" height="21" viewBox="0 0 42 21" fill="none" xmlns="http://www.w3.org/2000/svg">
<g clip-path="url(#clip0_16197_8021)">
<mask id="mask0_16197_8021" style="mask-type:luminance" maskUnits="userSpaceOnUse" x="0" y="-9" width="42" height="43">
<path d="M0 -8.63867H41.5881V33.5352H0V-8.63867Z" fill="white"/>
</mask>
<g mask="url(#mask0_16197_8021)">
<path fill-rule="evenodd" clip-rule="evenodd" d="M2.72646 17.4279C2.21218 17.4279 1.95035 17.1684 1.95035 16.7425C1.95035 15.9477 2.81608 15.6806 4.39468 15.5084C4.39468 16.5674 3.69529 17.4279 2.72178 17.4279H2.72646ZM3.40593 11.4726C2.27719 11.4726 0.979761 12.0161 0.275106 12.5913L0.918844 13.9819C1.48351 13.4524 2.39669 12.999 3.22084 12.999C4.00398 12.999 4.43685 13.2673 4.43685 13.8079C4.43685 14.1705 4.14983 14.3545 3.6086 14.4265C1.58425 14.6948 -0.00195312 15.267 -0.00195312 16.8632C-0.00195312 18.129 0.877841 18.8952 2.25318 18.8952C3.23548 18.8952 4.10883 18.337 4.52413 17.6036V18.696H6.354V14.1178C6.354 12.2305 5.07414 11.4685 3.4071 11.4685L3.40593 11.4726ZM21.7756 11.6782V18.6872H23.7337V15.3098C23.7337 13.7054 24.6827 13.2339 25.344 13.2339C25.6423 13.2317 25.9344 13.3199 26.1816 13.487L26.5389 11.6342C26.2622 11.5208 25.9651 11.4658 25.6661 11.4726C24.6598 11.4726 24.0266 11.9283 23.6096 12.8561V11.6782H21.7756ZM35.6151 11.4726C34.5795 11.4726 33.8051 12.0981 33.4021 12.7026C33.029 11.9224 32.2376 11.4726 31.287 11.4726C30.2525 11.4726 29.5356 12.0607 29.2041 12.7378V11.6782H27.3156V18.6872H29.2761V15.079C29.2761 13.7869 29.9386 13.1625 30.5571 13.1625C31.1171 13.1625 31.6314 13.5326 31.6314 14.4892V18.6872H33.5878V15.079C33.5878 13.7681 34.2339 13.1625 34.8811 13.1625C35.3995 13.1625 35.9489 13.5479 35.9489 14.4757V18.6872H37.9053V13.8419C37.9053 12.2674 36.8697 11.4726 35.6186 11.4726M17.0099 11.6782H15.2351V10.9659C15.2351 10.0381 15.7523 9.7739 16.1981 9.7739C16.5021 9.778 16.8014 9.85473 17.0709 9.99765L17.6748 8.58366C17.6748 8.58366 17.0627 8.1748 15.9492 8.1748C14.6986 8.1748 13.2746 8.89703 13.2746 11.1621V11.6782H10.3107V10.9659C10.3107 10.0381 10.8262 9.7739 11.2731 9.7739C11.5777 9.7739 11.8776 9.85063 12.1459 9.99765L12.7498 8.58366C12.3901 8.3681 11.8103 8.1748 11.0253 8.1748C9.77419 8.1748 8.35082 8.89703 8.35082 11.1621V11.6782H7.2174V13.224H8.35375V18.6872H10.3102V13.224H13.2787V18.6872H15.2351V13.224H17.0094V11.6782H17.0099Z" fill="#101820"/>
<path d="M20.1318 11.6787H18.1777V18.6848H20.1324L20.1318 11.6787Z" fill="#101820"/>
<path fill-rule="evenodd" clip-rule="evenodd" d="M18.25 10.4875H20.1642C21.2812 6.89214 25.071 3.73261 29.5778 3.73261C35.0586 3.73261 39.7956 8.00389 39.7956 14.6533C39.8123 16.0173 39.6292 17.3764 39.252 18.6874H41.1106L41.1288 18.6218C41.4421 17.3261 41.5968 15.9947 41.5891 14.6598C41.5891 7.24418 36.3098 1.90625 29.5813 1.90625C24.2967 1.90625 19.5861 5.6609 18.2506 10.4892L18.25 10.4875Z" fill="#4A4AF4"/>
</g>
</g>
<defs>
<clipPath id="clip0_16197_8021">
<rect width="41.594" height="20.797" fill="white"/>
</clipPath>
</defs>
</svg>
