<svg width="52" height="21" viewBox="0 0 52 21" fill="none" xmlns="http://www.w3.org/2000/svg">
<g clip-path="url(#clip0_16197_8029)">
<path d="M1.23145 10.3814C1.23145 6.18105 1.23145 4.06378 2.25593 2.56121C2.66572 1.94652 3.17796 1.43428 3.79265 1.02448C5.29523 0 7.41249 0 11.6129 0H40.2642C44.4988 0 46.616 0 48.1186 1.02448C48.6992 1.43428 49.2114 1.94652 49.6212 2.56121C50.6457 4.06378 50.6457 6.18105 50.6457 10.3814C50.6457 14.616 50.6457 16.7332 49.6212 18.2358C49.2114 18.8505 48.6992 19.3627 48.1186 19.7725C46.616 20.797 44.4988 20.797 40.2642 20.797H11.6129C7.41249 20.797 5.29523 20.797 3.79265 19.7725C3.17796 19.3627 2.66572 18.8505 2.25593 18.2358C1.23145 16.7332 1.23145 14.616 1.23145 10.3814Z" fill="#FFA8CD"/>
<path d="M41.0503 13.2844C40.1965 13.2844 39.5135 12.5673 39.5135 11.7136C39.5135 10.8257 40.1965 10.1427 41.0503 10.1427C41.904 10.1427 42.587 10.8257 42.587 11.7136C42.587 12.5673 41.904 13.2844 41.0503 13.2844ZM40.6405 14.9578C41.3576 14.9578 42.3138 14.6846 42.826 13.5918H42.8602C42.6553 14.2065 42.6553 14.548 42.6553 14.6504V14.787H44.4994V8.64013H42.6553V8.77672C42.6553 8.84502 42.6553 9.22067 42.8602 9.80121L42.826 9.83536C42.6374 9.41727 42.3291 9.06443 41.9402 8.82133C41.5512 8.57823 41.099 8.45576 40.6405 8.46938C38.8647 8.46938 37.6353 9.86951 37.6353 11.7136C37.6353 13.5576 38.8647 14.9578 40.6405 14.9578ZM34.3911 8.46938C33.5716 8.46938 32.8886 8.74258 32.3763 9.83536L32.308 9.80121C32.5471 9.22067 32.5471 8.84502 32.5471 8.77672V8.64013H30.703V14.787H32.5812V11.5428C32.5812 10.6891 33.0935 10.1427 33.8789 10.1427C34.6985 10.1427 35.0741 10.6208 35.0741 11.5428V14.787H36.9865V10.8598C36.9865 9.45971 35.8937 8.46938 34.3911 8.46938ZM27.9369 9.83536L27.9027 9.80121C28.1076 9.22067 28.1076 8.84502 28.1076 8.77672V8.64013H26.2636V14.787H28.1759V11.816C28.1759 10.9623 28.654 10.4159 29.4053 10.4159L29.9517 10.5183V8.64013C29.098 8.43523 28.3467 8.77672 27.9369 9.83536ZM21.8924 13.2844C21.0387 13.2844 20.3557 12.5673 20.3557 11.7136C20.3557 10.8257 21.0387 10.1427 21.8924 10.1427C22.7462 10.1427 23.4292 10.8257 23.4292 11.7136C23.4292 12.5673 22.7462 13.2844 21.8924 13.2844ZM21.4485 14.9578C22.1998 14.9578 23.1218 14.6846 23.6682 13.5918H23.7024C23.4633 14.2065 23.4633 14.548 23.4633 14.6504V14.787H25.3415V8.64013H23.4633V8.77672C23.4633 8.84502 23.4633 9.22067 23.7024 9.80121L23.6682 9.83536C23.4773 9.41173 23.1638 9.05511 22.7681 8.81159C22.3724 8.56807 21.9127 8.44887 21.4485 8.46938C19.7069 8.46938 18.4434 9.86951 18.4434 11.7136C18.4434 13.5576 19.7069 14.9578 21.4485 14.9578ZM15.8138 14.787H17.7262V5.87402H15.8138V14.787ZM14.4137 5.87402H12.4672C12.4672 7.47905 11.511 8.87917 10.0084 9.90366L9.4279 10.3134V5.87402H7.41309V14.787H9.4279V10.3817L12.7745 14.787H15.2333L12.0233 10.5525C13.4917 9.49386 14.4137 7.85469 14.4137 5.87402Z" fill="#0B051D"/>
</g>
<defs>
<clipPath id="clip0_16197_8029">
<rect width="50.7244" height="20.797" fill="white" transform="translate(0.59375)"/>
</clipPath>
</defs>
</svg>
