<svg width="15" height="16" viewBox="0 0 15 16" fill="none" xmlns="http://www.w3.org/2000/svg">
<path d="M7.39616 4.88385C7.87555 4.88385 8.26416 4.49537 8.26416 4.01614C8.26416 3.53692 7.87555 3.14844 7.39616 3.14844C6.91678 3.14844 6.52816 3.53692 6.52816 4.01614C6.52816 4.49537 6.91678 4.88385 7.39616 4.88385Z" fill="#4E594D"/>
<path d="M9.3 10.8958H8.06V5.9375H6.2C6.03556 5.9375 5.87787 6.0028 5.76159 6.11903C5.64532 6.23527 5.58 6.39291 5.58 6.55729C5.58 6.72167 5.64532 6.87932 5.76159 6.99555C5.87787 7.11178 6.03556 7.17708 6.2 7.17708H6.82V10.8958H5.58C5.41556 10.8958 5.25787 10.9611 5.14159 11.0774C5.02532 11.1936 4.96 11.3512 4.96 11.5156C4.96 11.68 5.02532 11.8376 5.14159 11.9539C5.25787 12.0701 5.41556 12.1354 5.58 12.1354H9.3C9.46443 12.1354 9.62213 12.0701 9.73841 11.9539C9.85468 11.8376 9.92 11.68 9.92 11.5156C9.92 11.3512 9.85468 11.1936 9.73841 11.0774C9.62213 10.9611 9.46443 10.8958 9.3 10.8958Z" fill="#4E594D"/>
<path d="M7.44 0.359375C5.96851 0.359375 4.53006 0.795577 3.30656 1.61282C2.08306 2.43006 1.12946 3.59164 0.56634 4.95067C0.00322365 6.30969 -0.144113 7.80512 0.142961 9.24786C0.430035 10.6906 1.13863 12.0158 2.17913 13.056C3.21963 14.0961 4.54531 14.8045 5.98853 15.0915C7.43175 15.3784 8.92768 15.2312 10.2872 14.6682C11.6466 14.1053 12.8086 13.152 13.6261 11.9289C14.4437 10.7058 14.88 9.26787 14.88 7.79687C14.88 5.82433 14.0961 3.93257 12.7009 2.53777C11.3056 1.14297 9.41321 0.359375 7.44 0.359375ZM7.44 13.9948C6.21376 13.9948 5.01505 13.6313 3.99547 12.9503C2.97588 12.2692 2.18121 11.3012 1.71195 10.1687C1.24269 9.03619 1.11991 7.79 1.35913 6.58772C1.59836 5.38544 2.18886 4.28108 3.05594 3.41429C3.92303 2.54749 5.02776 1.9572 6.23044 1.71805C7.43312 1.4789 8.67974 1.60164 9.81264 2.07075C10.9455 2.53985 11.9138 3.33425 12.5951 4.3535C13.2764 5.37274 13.64 6.57104 13.64 7.79687C13.64 8.6108 13.4796 9.41675 13.1681 10.1687C12.8565 10.9207 12.3998 11.6039 11.8241 12.1795C11.2483 12.755 10.5649 13.2115 9.81264 13.523C9.06042 13.8345 8.2542 13.9948 7.44 13.9948Z" fill="#4E594D"/>
</svg>
