<svg width="85" height="21" viewBox="0 0 85 21" fill="none" xmlns="http://www.w3.org/2000/svg">
<g clip-path="url(#clip0_16197_8032)">
<path fill-rule="evenodd" clip-rule="evenodd" d="M7.56444 0.0193549C5.47915 0.0193549 4.4357 0.0193548 3.32103 0.365838C2.09113 0.811544 1.1213 1.78138 0.675598 3.01287C0.320312 4.13875 0.320312 5.1806 0.320312 7.26668V13.561C0.320312 15.6583 0.320312 16.6914 0.666796 17.8148C1.1125 19.0455 2.08233 20.0154 3.31223 20.4611C4.4373 20.8179 5.47915 20.8179 7.56444 20.8179H13.8651C15.9528 20.8179 16.9939 20.8179 18.1166 20.4611C19.3473 20.0153 20.3163 19.0455 20.762 17.8148C21.1173 16.689 21.1173 15.6471 21.1173 13.561V7.27552C21.1173 5.187 21.1173 4.14515 20.762 3.02167C20.3163 1.79098 19.3465 0.821149 18.1166 0.37544C16.9835 0.0185547 15.9528 0.0185547 13.8547 0.0185547H7.56366L7.56444 0.0193549Z" fill="#00D633"/>
<path d="M11.5595 9.40844C13.7508 9.878 14.7525 10.7859 14.7525 12.3198C14.7525 14.2428 13.1867 15.6622 10.7423 15.8125L10.5038 16.95C10.4805 17.0611 10.3824 17.1407 10.2688 17.1407H8.38831C8.23331 17.1407 8.11892 16.996 8.15473 16.8453L8.45655 15.5733C7.24493 15.2285 6.26991 14.5579 5.70154 13.7301C5.62998 13.6259 5.65372 13.4835 5.75351 13.4059L7.0679 12.3836C7.17623 12.2993 7.3315 12.324 7.41157 12.4354C8.10807 13.4048 9.17658 13.9789 10.4638 13.9789C11.622 13.9789 12.4986 13.4154 12.4986 12.6015C12.4986 11.9754 12.0603 11.6937 10.589 11.3807C8.05328 10.8484 7.05152 9.90933 7.05152 8.37535C7.05152 6.59559 8.54728 5.25114 10.8036 5.07652L11.0499 3.90173C11.0732 3.79056 11.1712 3.71094 11.2848 3.71094H13.1401C13.2932 3.71094 13.4071 3.85224 13.3747 4.00183L13.0895 5.31813C14.0604 5.61698 14.851 6.15134 15.3431 6.81077C15.4193 6.91293 15.3997 7.05767 15.3011 7.13852L14.1019 8.12189C13.9977 8.20735 13.8456 8.1887 13.7608 8.08387C13.1513 7.33004 12.1918 6.90403 11.1525 6.90403C9.99423 6.90403 9.2742 7.40491 9.2742 8.12495C9.2742 8.71974 9.83767 9.0328 11.5595 9.40844Z" fill="white"/>
<path d="M33.1294 5.34488C33.0941 5.25136 33.0046 5.18945 32.9047 5.18945H30.9528C30.8528 5.18945 30.7633 5.25143 30.7281 5.34501L26.9677 15.3447C26.9087 15.5017 27.0247 15.6692 27.1924 15.6692H28.6711C28.7714 15.6692 28.8612 15.6068 28.8961 15.5127L29.6992 13.3485H34.1217L34.9318 15.5133C34.9669 15.6071 35.0565 15.6692 35.1566 15.6692H36.672C36.8398 15.6692 36.9558 15.5015 36.8967 15.3445L33.1294 5.34488ZM30.3414 11.6189L31.8958 7.41527L33.4722 11.6189H30.3414Z" fill="black"/>
<path d="M46.4063 14.0902C46.2709 14.1017 46.1422 14.1074 45.9588 14.1074C45.3458 14.1074 44.9662 14.0271 44.9662 13.3557V9.59725H46.3098C46.4424 9.59725 46.5499 9.48982 46.5499 9.35724V8.23914C46.5499 8.10656 46.4424 7.99906 46.3098 7.99906H44.9662V6.02055C44.9662 5.88797 44.8587 5.7805 44.7262 5.7805H43.338C43.2055 5.7805 43.098 5.88797 43.098 6.02055V7.99906H40.0695V7.66339C40.0695 6.846 40.4271 6.64901 41.0912 6.64901C41.2043 6.64901 41.2881 6.64901 41.3699 6.65096C41.5051 6.65428 41.6166 6.54626 41.6166 6.41105V5.28449C41.6166 5.1564 41.5158 5.05059 41.3879 5.04467C41.2035 5.03613 41.0656 5.03613 40.8577 5.03613C39.0551 5.03613 38.172 5.93378 38.172 7.53925V7.99906H37.3612C37.2286 7.99906 37.1211 8.10656 37.1211 8.23914V9.35724C37.1211 9.48982 37.2286 9.59725 37.3612 9.59725H38.172V15.4291C38.172 15.5617 38.2795 15.6692 38.4121 15.6692H39.8294C39.962 15.6692 40.0695 15.5617 40.0695 15.4291V9.59725H43.098V13.706C43.098 15.2752 43.9007 15.7567 45.4041 15.7567C45.7957 15.7567 46.1582 15.7278 46.4645 15.6817C46.5813 15.6641 46.6667 15.5626 46.6667 15.4445V14.3293C46.6667 14.1887 46.5464 14.0782 46.4063 14.0902Z" fill="black"/>
<path d="M51.1693 7.85352C49.0164 7.85352 47.4766 9.58318 47.4766 11.8382C47.4766 14.21 49.0164 15.8301 51.2422 15.8301C52.6836 15.8301 53.8798 15.1265 54.4723 13.9013C54.5335 13.7749 54.469 13.6229 54.3371 13.5746L53.1877 13.1533C53.0704 13.1102 52.9384 13.1642 52.8876 13.2785C52.6058 13.9112 51.9966 14.2465 51.2496 14.2465C50.1841 14.2465 49.4324 13.4948 49.2938 12.2542H54.3812C54.5137 12.2542 54.6212 12.1467 54.6212 12.0141V11.663C54.6212 9.53937 53.417 7.85352 51.1693 7.85352ZM49.374 10.904C49.6294 9.91885 50.2936 9.40803 51.1547 9.40803C52.2056 9.40803 52.7092 10.1013 52.7238 10.904H49.374Z" fill="black"/>
<path d="M60.2002 7.96528C60.1187 7.95976 60.0289 7.95605 59.9261 7.95605C58.9628 7.95605 58.1892 8.41586 57.8535 9.10918V8.23993C57.8535 8.10735 57.746 7.99986 57.6134 7.99986H56.1961C56.0635 7.99986 55.9561 8.10735 55.9561 8.23993V15.4299C55.9561 15.5625 56.0635 15.67 56.1961 15.67H57.6134C57.746 15.67 57.8535 15.5625 57.8535 15.4299V11.7072C57.8535 10.503 58.6855 9.81706 59.7729 9.81706C59.9194 9.81706 60.0404 9.82213 60.1616 9.83233C60.3018 9.8441 60.4224 9.73407 60.4224 9.5933V8.20471C60.4224 8.07902 60.3256 7.9738 60.2002 7.96528Z" fill="black"/>
<path d="M65.7351 7.85352C64.7575 7.85352 64.0276 8.24034 63.5605 8.80225V8.23956C63.5605 8.10698 63.4531 7.99948 63.3205 7.99948H61.9032C61.7706 7.99948 61.6631 8.10698 61.6631 8.23956V18.0422C61.6631 18.1747 61.7706 18.2822 61.9032 18.2822H63.3205C63.4531 18.2822 63.5605 18.1747 63.5605 18.0422V14.8741C64.0276 15.4433 64.7575 15.8301 65.7351 15.8301C67.8662 15.8301 69.0926 14.0202 69.0926 11.8382C69.0926 9.66344 67.8662 7.85352 65.7351 7.85352ZM65.3192 14.1882C64.2903 14.1882 63.5168 13.4218 63.5168 12.0644V11.6265C63.5168 10.2473 64.2903 9.49557 65.3192 9.49557C66.5306 9.49557 67.1805 10.4516 67.1805 11.8382C67.1805 13.2321 66.5306 14.1882 65.3192 14.1882Z" fill="black"/>
<path d="M76.8723 14.2368C76.5766 14.2235 76.4564 14.0723 76.4564 13.7283V10.5099C76.4564 8.73661 75.3177 7.85352 73.4278 7.85352C71.7933 7.85352 70.6878 8.73596 70.2471 9.89156C70.1939 10.0305 70.2764 10.1842 70.4226 10.2144L71.7406 10.4878C71.857 10.5118 71.9739 10.4475 72.0142 10.3361C72.2261 9.75137 72.6356 9.45904 73.3543 9.45904C74.2447 9.45904 74.6022 9.88961 74.6022 10.583V10.707L72.5881 11.1084C71.0777 11.4003 69.917 12.0426 69.917 13.5386C69.917 14.9032 71.0342 15.801 72.5153 15.801C73.5149 15.801 74.3032 15.4871 74.7926 14.9471C75.074 15.5454 75.7389 15.8067 76.8892 15.6944C77.012 15.6824 77.1056 15.5785 77.1056 15.4551V14.4764C77.1056 14.3467 77.0023 14.2425 76.8723 14.2368ZM74.6022 12.9548C74.6022 13.8524 73.7488 14.3268 72.8513 14.3268C72.2086 14.3268 71.7926 14.0057 71.7926 13.4437C71.7926 12.7942 72.3184 12.568 73.0261 12.422L74.6022 12.0936V12.9548Z" fill="black"/>
<path d="M84.4731 7.99902H83.0576C82.9549 7.99902 82.8633 8.0646 82.8302 8.16202L81.1196 13.2097L79.3655 8.16033C79.3324 8.06375 79.2414 7.99902 79.1387 7.99902H77.6784C77.5107 7.99902 77.395 8.16657 77.4541 8.32352L80.1051 15.3772L79.8354 16.0413C79.6014 16.6251 79.3168 16.7784 78.7553 16.7784C78.6279 16.7784 78.531 16.7738 78.4297 16.7659C78.2906 16.755 78.171 16.8653 78.171 17.0052V18.0882C78.171 18.2117 78.2652 18.3155 78.3881 18.3271C78.5317 18.3407 78.6714 18.3475 78.9301 18.3475C80.5724 18.3475 81.258 17.5082 81.7253 16.2457L84.698 8.32346C84.7571 8.1665 84.6408 7.99902 84.4731 7.99902Z" fill="black"/>
</g>
<defs>
<clipPath id="clip0_16197_8032">
<rect width="84.4878" height="20.797" fill="white" transform="translate(0.318359)"/>
</clipPath>
</defs>
</svg>
