<svg width="18" height="18" viewBox="0 0 18 18" fill="none" xmlns="http://www.w3.org/2000/svg">
<path d="M6.8125 9C6.12027 9 5.44358 9.20527 4.86801 9.58986C4.29243 9.97444 3.84383 10.5211 3.57892 11.1606C3.31402 11.8001 3.2447 12.5039 3.37975 13.1828C3.5148 13.8617 3.84814 14.4854 4.33763 14.9749C4.82711 15.4644 5.45075 15.7977 6.12969 15.9327C6.80862 16.0678 7.51235 15.9985 8.15189 15.7336C8.79143 15.4687 9.33806 15.0201 9.72264 14.4445C10.1072 13.8689 10.3125 13.1922 10.3125 12.5V2C10.3125 3.16032 10.7734 4.27312 11.5939 5.09359C12.4144 5.91406 13.5272 6.375 14.6875 6.375" stroke="#247B4E" stroke-width="2" stroke-linecap="round" stroke-linejoin="round"/>
</svg>
